# xmcd CD database file
#
# Track frame offsets:
#	182
#	20762
#	35122
#	53537
#	67575
#	82842
#	98200
#	111655
#	129825
#	139065
#
# Disc length: 2254 seconds
#
# Revision: 3
# Processed by: cddbd v1.5.1PL0 Copyright (c) Steve Scherf et al.
# Submitted via: CDex 1.51
#
DISCID=7e08cc0a
DTITLE=Neil Young - Harvest
DYEAR=1972
DGENRE=Rock
TTITLE0=Out on the  Weekend
TTITLE1=Harvest
TTITLE2=A Man Needs a Maid
TTITLE3=Heart of Gold
TTITLE4=Are You Ready for the Country?
TTITLE5=Old Man
TTITLE6=There's a World
TTITLE7=Alabama
TTITLE8=The Needle and the Damage Done
TTITLE9=Words (Between the Lines of Age)
EXTD=YEAR: 1972
EXTT0=
EXTT1=
EXTT2=
EXTT3=
EXTT4=
EXTT5=
EXTT6=
EXTT7=
EXTT8=
EXTT9=
PLAYORDER=
